<svg width="171" height="223" viewBox="0 0 171 223" fill="none" xmlns="http://www.w3.org/2000/svg">
<g clip-path="url(#clip0_6_1820)">
<circle cx="14.5" cy="12.5" r="1.5" fill="#D2D6DB"/>
<circle cx="23.5" cy="12.5" r="1.5" fill="#D2D6DB"/>
<circle cx="32.5" cy="12.5" r="1.5" fill="#D2D6DB"/>
<circle cx="41.5" cy="12.5" r="1.5" fill="#D2D6DB"/>
<circle cx="50.5" cy="12.5" r="1.5" fill="#D2D6DB"/>
<circle cx="59.5" cy="12.5" r="1.5" fill="#D2D6DB"/>
<circle cx="68.5" cy="12.5" r="1.5" fill="#D2D6DB"/>
<circle cx="77.5" cy="12.5" r="1.5" fill="#D2D6DB"/>
<circle cx="86.5" cy="12.5" r="1.5" fill="#D2D6DB"/>
<circle cx="95.5" cy="12.5" r="1.5" fill="#D2D6DB"/>
<circle cx="104.5" cy="12.5" r="1.5" fill="#D2D6DB"/>
<circle cx="113.5" cy="12.5" r="1.5" fill="#D2D6DB"/>
<circle cx="122.5" cy="12.5" r="1.5" fill="#D2D6DB"/>
<circle cx="131.5" cy="12.5" r="1.5" fill="#D2D6DB"/>
<circle cx="140.5" cy="12.5" r="1.5" fill="#D2D6DB"/>
<circle cx="149.5" cy="12.5" r="1.5" fill="#D2D6DB"/>
<circle cx="158.5" cy="12.5" r="1.5" fill="#D2D6DB"/>
<circle cx="14.5" cy="21.5" r="1.5" fill="#D2D6DB"/>
<circle cx="23.5" cy="21.5" r="1.5" fill="#D2D6DB"/>
<circle cx="32.5" cy="21.5" r="1.5" fill="#D2D6DB"/>
<circle cx="41.5" cy="21.5" r="1.5" fill="#D2D6DB"/>
<circle cx="50.5" cy="21.5" r="1.5" fill="#D2D6DB"/>
<circle cx="59.5" cy="21.5" r="1.5" fill="#D2D6DB"/>
<circle cx="68.5" cy="21.5" r="1.5" fill="#D2D6DB"/>
<circle cx="77.5" cy="21.5" r="1.5" fill="#D2D6DB"/>
<circle cx="86.5" cy="21.5" r="1.5" fill="#D2D6DB"/>
<circle cx="95.5" cy="21.5" r="1.5" fill="#D2D6DB"/>
<circle cx="104.5" cy="21.5" r="1.5" fill="#D2D6DB"/>
<circle cx="113.5" cy="21.5" r="1.5" fill="#D2D6DB"/>
<circle cx="122.5" cy="21.5" r="1.5" fill="#D2D6DB"/>
<circle cx="131.5" cy="21.5" r="1.5" fill="#D2D6DB"/>
<circle cx="140.5" cy="21.5" r="1.5" fill="#D2D6DB"/>
<circle cx="149.5" cy="21.5" r="1.5" fill="#D2D6DB"/>
<circle cx="158.5" cy="21.5" r="1.5" fill="#D2D6DB"/>
<circle cx="14.5" cy="30.5" r="1.5" fill="#D2D6DB"/>
<circle cx="23.5" cy="30.5" r="1.5" fill="#D2D6DB"/>
<circle cx="32.5" cy="30.5" r="1.5" fill="#D2D6DB"/>
<circle cx="41.5" cy="30.5" r="1.5" fill="#D2D6DB"/>
<circle cx="50.5" cy="30.5" r="1.5" fill="#D2D6DB"/>
<circle cx="59.5" cy="30.5" r="1.5" fill="#D2D6DB"/>
<circle cx="68.5" cy="30.5" r="1.5" fill="#D2D6DB"/>
<circle cx="77.5" cy="30.5" r="1.5" fill="#D2D6DB"/>
<circle cx="86.5" cy="30.5" r="1.5" fill="#D2D6DB"/>
<circle cx="95.5" cy="30.5" r="1.5" fill="#D2D6DB"/>
<circle cx="104.5" cy="30.5" r="1.5" fill="#D2D6DB"/>
<circle cx="113.5" cy="30.5" r="1.5" fill="#D2D6DB"/>
<circle cx="122.5" cy="30.5" r="1.5" fill="#D2D6DB"/>
<circle cx="131.5" cy="30.5" r="1.5" fill="#D2D6DB"/>
<circle cx="140.5" cy="30.5" r="1.5" fill="#D2D6DB"/>
<circle cx="149.5" cy="30.5" r="1.5" fill="#D2D6DB"/>
<circle cx="158.5" cy="30.5" r="1.5" fill="#D2D6DB"/>
<circle cx="14.5" cy="39.5" r="1.5" fill="#D2D6DB"/>
<circle cx="23.5" cy="39.5" r="1.5" fill="#D2D6DB"/>
<circle cx="32.5" cy="39.5" r="1.5" fill="#D2D6DB"/>
<circle cx="41.5" cy="39.5" r="1.5" fill="#D2D6DB"/>
<circle cx="50.5" cy="39.5" r="1.5" fill="#D2D6DB"/>
<circle cx="59.5" cy="39.5" r="1.5" fill="#D2D6DB"/>
<circle cx="68.5" cy="39.5" r="1.5" fill="#D2D6DB"/>
<circle cx="77.5" cy="39.5" r="1.5" fill="#D2D6DB"/>
<circle cx="86.5" cy="39.5" r="1.5" fill="#D2D6DB"/>
<circle cx="95.5" cy="39.5" r="1.5" fill="#D2D6DB"/>
<circle cx="104.5" cy="39.5" r="1.5" fill="#D2D6DB"/>
<circle cx="113.5" cy="39.5" r="1.5" fill="#D2D6DB"/>
<circle cx="122.5" cy="39.5" r="1.5" fill="#D2D6DB"/>
<circle cx="131.5" cy="39.5" r="1.5" fill="#D2D6DB"/>
<circle cx="140.5" cy="39.5" r="1.5" fill="#D2D6DB"/>
<circle cx="149.5" cy="39.5" r="1.5" fill="#D2D6DB"/>
<circle cx="158.5" cy="39.5" r="1.5" fill="#D2D6DB"/>
<circle cx="14.5" cy="48.5" r="1.5" fill="#D2D6DB"/>
<circle cx="23.5" cy="48.5" r="1.5" fill="#D2D6DB"/>
<circle cx="32.5" cy="48.5" r="1.5" fill="#D2D6DB"/>
<circle cx="41.5" cy="48.5" r="1.5" fill="#D2D6DB"/>
<circle cx="50.5" cy="48.5" r="1.5" fill="#D2D6DB"/>
<circle cx="59.5" cy="48.5" r="1.5" fill="#D2D6DB"/>
<circle cx="68.5" cy="48.5" r="1.5" fill="#D2D6DB"/>
<circle cx="77.5" cy="48.5" r="1.5" fill="#D2D6DB"/>
<circle cx="86.5" cy="48.5" r="1.5" fill="#D2D6DB"/>
<circle cx="95.5" cy="48.5" r="1.5" fill="#D2D6DB"/>
<circle cx="104.5" cy="48.5" r="1.5" fill="#D2D6DB"/>
<circle cx="113.5" cy="48.5" r="1.5" fill="#D2D6DB"/>
<circle cx="122.5" cy="48.5" r="1.5" fill="#D2D6DB"/>
<circle cx="131.5" cy="48.5" r="1.5" fill="#D2D6DB"/>
<circle cx="140.5" cy="48.5" r="1.5" fill="#D2D6DB"/>
<circle cx="149.5" cy="48.5" r="1.5" fill="#D2D6DB"/>
<circle cx="158.5" cy="48.5" r="1.5" fill="#D2D6DB"/>
<circle cx="14.5" cy="57.5" r="1.5" fill="#D2D6DB"/>
<circle cx="23.5" cy="57.5" r="1.5" fill="#D2D6DB"/>
<circle cx="32.5" cy="57.5" r="1.5" fill="#D2D6DB"/>
<circle cx="41.5" cy="57.5" r="1.5" fill="#D2D6DB"/>
<circle cx="50.5" cy="57.5" r="1.5" fill="#D2D6DB"/>
<circle cx="59.5" cy="57.5" r="1.5" fill="#D2D6DB"/>
<circle cx="68.5" cy="57.5" r="1.5" fill="#D2D6DB"/>
<circle cx="77.5" cy="57.5" r="1.5" fill="#D2D6DB"/>
<circle cx="86.5" cy="57.5" r="1.5" fill="#D2D6DB"/>
<circle cx="95.5" cy="57.5" r="1.5" fill="#D2D6DB"/>
<circle cx="104.5" cy="57.5" r="1.5" fill="#D2D6DB"/>
<circle cx="113.5" cy="57.5" r="1.5" fill="#D2D6DB"/>
<circle cx="122.5" cy="57.5" r="1.5" fill="#D2D6DB"/>
<circle cx="131.5" cy="57.5" r="1.5" fill="#D2D6DB"/>
<circle cx="140.5" cy="57.5" r="1.5" fill="#D2D6DB"/>
<circle cx="149.5" cy="57.5" r="1.5" fill="#D2D6DB"/>
<circle cx="158.5" cy="57.5" r="1.5" fill="#D2D6DB"/>
<circle cx="14.5" cy="66.5" r="1.5" fill="#D2D6DB"/>
<circle cx="23.5" cy="66.5" r="1.5" fill="#D2D6DB"/>
<circle cx="32.5" cy="66.5" r="1.5" fill="#D2D6DB"/>
<circle cx="41.5" cy="66.5" r="1.5" fill="#D2D6DB"/>
<circle cx="50.5" cy="66.5" r="1.5" fill="#D2D6DB"/>
<circle cx="59.5" cy="66.5" r="1.5" fill="#D2D6DB"/>
<circle cx="68.5" cy="66.5" r="1.5" fill="#D2D6DB"/>
<circle cx="77.5" cy="66.5" r="1.5" fill="#D2D6DB"/>
<circle cx="86.5" cy="66.5" r="1.5" fill="#D2D6DB"/>
<circle cx="95.5" cy="66.5" r="1.5" fill="#D2D6DB"/>
<circle cx="104.5" cy="66.5" r="1.5" fill="#D2D6DB"/>
<circle cx="113.5" cy="66.5" r="1.5" fill="#D2D6DB"/>
<circle cx="122.5" cy="66.5" r="1.5" fill="#D2D6DB"/>
<circle cx="131.5" cy="66.5" r="1.5" fill="#D2D6DB"/>
<circle cx="140.5" cy="66.5" r="1.5" fill="#D2D6DB"/>
<circle cx="149.5" cy="66.5" r="1.5" fill="#D2D6DB"/>
<circle cx="158.5" cy="66.5" r="1.5" fill="#D2D6DB"/>
<circle cx="14.5" cy="75.5" r="1.5" fill="#D2D6DB"/>
<circle cx="23.5" cy="75.5" r="1.5" fill="#D2D6DB"/>
<circle cx="32.5" cy="75.5" r="1.5" fill="#D2D6DB"/>
<circle cx="41.5" cy="75.5" r="1.5" fill="#D2D6DB"/>
<circle cx="50.5" cy="75.5" r="1.5" fill="#D2D6DB"/>
<circle cx="59.5" cy="75.5" r="1.5" fill="#D2D6DB"/>
<circle cx="68.5" cy="75.5" r="1.5" fill="#D2D6DB"/>
<circle cx="77.5" cy="75.5" r="1.5" fill="#D2D6DB"/>
<circle cx="86.5" cy="75.5" r="1.5" fill="#D2D6DB"/>
<circle cx="95.5" cy="75.5" r="1.5" fill="#D2D6DB"/>
<circle cx="104.5" cy="75.5" r="1.5" fill="#D2D6DB"/>
<circle cx="113.5" cy="75.5" r="1.5" fill="#D2D6DB"/>
<circle cx="122.5" cy="75.5" r="1.5" fill="#D2D6DB"/>
<circle cx="131.5" cy="75.5" r="1.5" fill="#D2D6DB"/>
<circle cx="140.5" cy="75.5" r="1.5" fill="#D2D6DB"/>
<circle cx="149.5" cy="75.5" r="1.5" fill="#D2D6DB"/>
<circle cx="158.5" cy="75.5" r="1.5" fill="#D2D6DB"/>
<circle cx="14.5" cy="84.5" r="1.5" fill="#D2D6DB"/>
<circle cx="23.5" cy="84.5" r="1.5" fill="#D2D6DB"/>
<circle cx="32.5" cy="84.5" r="1.5" fill="#D2D6DB"/>
<circle cx="41.5" cy="84.5" r="1.5" fill="#D2D6DB"/>
<circle cx="50.5" cy="84.5" r="1.5" fill="#D2D6DB"/>
<circle cx="59.5" cy="84.5" r="1.5" fill="#D2D6DB"/>
<circle cx="68.5" cy="84.5" r="1.5" fill="#D2D6DB"/>
<circle cx="77.5" cy="84.5" r="1.5" fill="#D2D6DB"/>
<circle cx="86.5" cy="84.5" r="1.5" fill="#D2D6DB"/>
<circle cx="95.5" cy="84.5" r="1.5" fill="#D2D6DB"/>
<circle cx="104.5" cy="84.5" r="1.5" fill="#D2D6DB"/>
<circle cx="113.5" cy="84.5" r="1.5" fill="#D2D6DB"/>
<circle cx="122.5" cy="84.5" r="1.5" fill="#D2D6DB"/>
<circle cx="131.5" cy="84.5" r="1.5" fill="#D2D6DB"/>
<circle cx="140.5" cy="84.5" r="1.5" fill="#D2D6DB"/>
<circle cx="149.5" cy="84.5" r="1.5" fill="#D2D6DB"/>
<circle cx="158.5" cy="84.5" r="1.5" fill="#D2D6DB"/>
<circle cx="14.5" cy="93.5" r="1.5" fill="#D2D6DB"/>
<circle cx="23.5" cy="93.5" r="1.5" fill="#D2D6DB"/>
<circle cx="32.5" cy="93.5" r="1.5" fill="#D2D6DB"/>
<circle cx="41.5" cy="93.5" r="1.5" fill="#D2D6DB"/>
<circle cx="50.5" cy="93.5" r="1.5" fill="#D2D6DB"/>
<circle cx="59.5" cy="93.5" r="1.5" fill="#D2D6DB"/>
<circle cx="68.5" cy="93.5" r="1.5" fill="#D2D6DB"/>
<circle cx="77.5" cy="93.5" r="1.5" fill="#D2D6DB"/>
<circle cx="86.5" cy="93.5" r="1.5" fill="#D2D6DB"/>
<circle cx="95.5" cy="93.5" r="1.5" fill="#D2D6DB"/>
<circle cx="104.5" cy="93.5" r="1.5" fill="#D2D6DB"/>
<circle cx="113.5" cy="93.5" r="1.5" fill="#D2D6DB"/>
<circle cx="122.5" cy="93.5" r="1.5" fill="#D2D6DB"/>
<circle cx="131.5" cy="93.5" r="1.5" fill="#D2D6DB"/>
<circle cx="140.5" cy="93.5" r="1.5" fill="#D2D6DB"/>
<circle cx="149.5" cy="93.5" r="1.5" fill="#D2D6DB"/>
<circle cx="158.5" cy="93.5" r="1.5" fill="#D2D6DB"/>
<circle cx="14.5" cy="102.5" r="1.5" fill="#D2D6DB"/>
<circle cx="23.5" cy="102.5" r="1.5" fill="#D2D6DB"/>
<circle cx="32.5" cy="102.5" r="1.5" fill="#D2D6DB"/>
<circle cx="41.5" cy="102.5" r="1.5" fill="#D2D6DB"/>
<circle cx="50.5" cy="102.5" r="1.5" fill="#D2D6DB"/>
<circle cx="59.5" cy="102.5" r="1.5" fill="#D2D6DB"/>
<circle cx="68.5" cy="102.5" r="1.5" fill="#D2D6DB"/>
<circle cx="77.5" cy="102.5" r="1.5" fill="#D2D6DB"/>
<circle cx="86.5" cy="102.5" r="1.5" fill="#D2D6DB"/>
<circle cx="95.5" cy="102.5" r="1.5" fill="#D2D6DB"/>
<circle cx="104.5" cy="102.5" r="1.5" fill="#D2D6DB"/>
<circle cx="113.5" cy="102.5" r="1.5" fill="#D2D6DB"/>
<circle cx="122.5" cy="102.5" r="1.5" fill="#D2D6DB"/>
<circle cx="131.5" cy="102.5" r="1.5" fill="#D2D6DB"/>
<circle cx="140.5" cy="102.5" r="1.5" fill="#D2D6DB"/>
<circle cx="149.5" cy="102.5" r="1.5" fill="#D2D6DB"/>
<circle cx="158.5" cy="102.5" r="1.5" fill="#D2D6DB"/>
<circle cx="14.5" cy="111.5" r="1.5" fill="#D2D6DB"/>
<circle cx="23.5" cy="111.5" r="1.5" fill="#D2D6DB"/>
<circle cx="32.5" cy="111.5" r="1.5" fill="#D2D6DB"/>
<circle cx="41.5" cy="111.5" r="1.5" fill="#D2D6DB"/>
<circle cx="50.5" cy="111.5" r="1.5" fill="#D2D6DB"/>
<circle cx="59.5" cy="111.5" r="1.5" fill="#D2D6DB"/>
<circle cx="68.5" cy="111.5" r="1.5" fill="#D2D6DB"/>
<circle cx="77.5" cy="111.5" r="1.5" fill="#D2D6DB"/>
<circle cx="86.5" cy="111.5" r="1.5" fill="#D2D6DB"/>
<circle cx="95.5" cy="111.5" r="1.5" fill="#D2D6DB"/>
<circle cx="104.5" cy="111.5" r="1.5" fill="#D2D6DB"/>
<circle cx="113.5" cy="111.5" r="1.5" fill="#D2D6DB"/>
<circle cx="122.5" cy="111.5" r="1.5" fill="#D2D6DB"/>
<circle cx="131.5" cy="111.5" r="1.5" fill="#D2D6DB"/>
<circle cx="140.5" cy="111.5" r="1.5" fill="#D2D6DB"/>
<circle cx="149.5" cy="111.5" r="1.5" fill="#D2D6DB"/>
<circle cx="158.5" cy="111.5" r="1.5" fill="#D2D6DB"/>
<circle cx="14.5" cy="120.5" r="1.5" fill="#D2D6DB"/>
<circle cx="23.5" cy="120.5" r="1.5" fill="#D2D6DB"/>
<circle cx="32.5" cy="120.5" r="1.5" fill="#D2D6DB"/>
<circle cx="41.5" cy="120.5" r="1.5" fill="#D2D6DB"/>
<circle cx="50.5" cy="120.5" r="1.5" fill="#D2D6DB"/>
<circle cx="59.5" cy="120.5" r="1.5" fill="#D2D6DB"/>
<circle cx="68.5" cy="120.5" r="1.5" fill="#D2D6DB"/>
<circle cx="77.5" cy="120.5" r="1.5" fill="#D2D6DB"/>
<circle cx="86.5" cy="120.5" r="1.5" fill="#D2D6DB"/>
<circle cx="95.5" cy="120.5" r="1.5" fill="#D2D6DB"/>
<circle cx="104.5" cy="120.5" r="1.5" fill="#D2D6DB"/>
<circle cx="113.5" cy="120.5" r="1.5" fill="#D2D6DB"/>
<circle cx="122.5" cy="120.5" r="1.5" fill="#D2D6DB"/>
<circle cx="131.5" cy="120.5" r="1.5" fill="#D2D6DB"/>
<circle cx="140.5" cy="120.5" r="1.5" fill="#D2D6DB"/>
<circle cx="149.5" cy="120.5" r="1.5" fill="#D2D6DB"/>
<circle cx="158.5" cy="120.5" r="1.5" fill="#D2D6DB"/>
<circle cx="14.5" cy="129.5" r="1.5" fill="#D2D6DB"/>
<circle cx="23.5" cy="129.5" r="1.5" fill="#D2D6DB"/>
<circle cx="32.5" cy="129.5" r="1.5" fill="#D2D6DB"/>
<circle cx="41.5" cy="129.5" r="1.5" fill="#D2D6DB"/>
<circle cx="50.5" cy="129.5" r="1.5" fill="#D2D6DB"/>
<circle cx="59.5" cy="129.5" r="1.5" fill="#D2D6DB"/>
<circle cx="68.5" cy="129.5" r="1.5" fill="#D2D6DB"/>
<circle cx="77.5" cy="129.5" r="1.5" fill="#D2D6DB"/>
<circle cx="86.5" cy="129.5" r="1.5" fill="#D2D6DB"/>
<circle cx="95.5" cy="129.5" r="1.5" fill="#D2D6DB"/>
<circle cx="104.5" cy="129.5" r="1.5" fill="#D2D6DB"/>
<circle cx="113.5" cy="129.5" r="1.5" fill="#D2D6DB"/>
<circle cx="122.5" cy="129.5" r="1.5" fill="#D2D6DB"/>
<circle cx="131.5" cy="129.5" r="1.5" fill="#D2D6DB"/>
<circle cx="140.5" cy="129.5" r="1.5" fill="#D2D6DB"/>
<circle cx="149.5" cy="129.5" r="1.5" fill="#D2D6DB"/>
<circle cx="158.5" cy="129.5" r="1.5" fill="#D2D6DB"/>
<circle cx="14.5" cy="138.5" r="1.5" fill="#D2D6DB"/>
<circle cx="23.5" cy="138.5" r="1.5" fill="#D2D6DB"/>
<circle cx="32.5" cy="138.5" r="1.5" fill="#D2D6DB"/>
<circle cx="41.5" cy="138.5" r="1.5" fill="#D2D6DB"/>
<circle cx="50.5" cy="138.5" r="1.5" fill="#D2D6DB"/>
<circle cx="59.5" cy="138.5" r="1.5" fill="#D2D6DB"/>
<circle cx="68.5" cy="138.5" r="1.5" fill="#D2D6DB"/>
<circle cx="77.5" cy="138.5" r="1.5" fill="#D2D6DB"/>
<circle cx="86.5" cy="138.5" r="1.5" fill="#D2D6DB"/>
<circle cx="95.5" cy="138.5" r="1.5" fill="#D2D6DB"/>
<circle cx="104.5" cy="138.5" r="1.5" fill="#D2D6DB"/>
<circle cx="113.5" cy="138.5" r="1.5" fill="#D2D6DB"/>
<circle cx="122.5" cy="138.5" r="1.5" fill="#D2D6DB"/>
<circle cx="131.5" cy="138.5" r="1.5" fill="#D2D6DB"/>
<circle cx="140.5" cy="138.5" r="1.5" fill="#D2D6DB"/>
<circle cx="149.5" cy="138.5" r="1.5" fill="#D2D6DB"/>
<circle cx="158.5" cy="138.5" r="1.5" fill="#D2D6DB"/>
<circle cx="14.5" cy="147.5" r="1.5" fill="#D2D6DB"/>
<circle cx="23.5" cy="147.5" r="1.5" fill="#D2D6DB"/>
<circle cx="32.5" cy="147.5" r="1.5" fill="#D2D6DB"/>
<circle cx="41.5" cy="147.5" r="1.5" fill="#D2D6DB"/>
<circle cx="50.5" cy="147.5" r="1.5" fill="#D2D6DB"/>
<circle cx="59.5" cy="147.5" r="1.5" fill="#D2D6DB"/>
<circle cx="68.5" cy="147.5" r="1.5" fill="#D2D6DB"/>
<circle cx="77.5" cy="147.5" r="1.5" fill="#D2D6DB"/>
<circle cx="86.5" cy="147.5" r="1.5" fill="#D2D6DB"/>
<circle cx="95.5" cy="147.5" r="1.5" fill="#D2D6DB"/>
<circle cx="104.5" cy="147.5" r="1.5" fill="#D2D6DB"/>
<circle cx="113.5" cy="147.5" r="1.5" fill="#D2D6DB"/>
<circle cx="122.5" cy="147.5" r="1.5" fill="#D2D6DB"/>
<circle cx="131.5" cy="147.5" r="1.5" fill="#D2D6DB"/>
<circle cx="140.5" cy="147.5" r="1.5" fill="#D2D6DB"/>
<circle cx="149.5" cy="147.5" r="1.5" fill="#D2D6DB"/>
<circle cx="158.5" cy="147.5" r="1.5" fill="#D2D6DB"/>
<circle cx="14.5" cy="156.5" r="1.5" fill="#D2D6DB"/>
<circle cx="23.5" cy="156.5" r="1.5" fill="#D2D6DB"/>
<circle cx="32.5" cy="156.5" r="1.5" fill="#D2D6DB"/>
<circle cx="41.5" cy="156.5" r="1.5" fill="#D2D6DB"/>
<circle cx="50.5" cy="156.5" r="1.5" fill="#D2D6DB"/>
<circle cx="59.5" cy="156.5" r="1.5" fill="#D2D6DB"/>
<circle cx="68.5" cy="156.5" r="1.5" fill="#D2D6DB"/>
<circle cx="77.5" cy="156.5" r="1.5" fill="#D2D6DB"/>
<circle cx="86.5" cy="156.5" r="1.5" fill="#D2D6DB"/>
<circle cx="95.5" cy="156.5" r="1.5" fill="#D2D6DB"/>
<circle cx="104.5" cy="156.5" r="1.5" fill="#D2D6DB"/>
<circle cx="113.5" cy="156.5" r="1.5" fill="#D2D6DB"/>
<circle cx="122.5" cy="156.5" r="1.5" fill="#D2D6DB"/>
<circle cx="131.5" cy="156.5" r="1.5" fill="#D2D6DB"/>
<circle cx="140.5" cy="156.5" r="1.5" fill="#D2D6DB"/>
<circle cx="149.5" cy="156.5" r="1.5" fill="#D2D6DB"/>
<circle cx="158.5" cy="156.5" r="1.5" fill="#D2D6DB"/>
<circle cx="14.5" cy="165.5" r="1.5" fill="#D2D6DB"/>
<circle cx="23.5" cy="165.5" r="1.5" fill="#D2D6DB"/>
<circle cx="32.5" cy="165.5" r="1.5" fill="#D2D6DB"/>
<circle cx="41.5" cy="165.5" r="1.5" fill="#D2D6DB"/>
<circle cx="50.5" cy="165.5" r="1.5" fill="#D2D6DB"/>
<circle cx="59.5" cy="165.5" r="1.5" fill="#D2D6DB"/>
<circle cx="68.5" cy="165.5" r="1.5" fill="#D2D6DB"/>
<circle cx="77.5" cy="165.5" r="1.5" fill="#D2D6DB"/>
<circle cx="86.5" cy="165.5" r="1.5" fill="#D2D6DB"/>
<circle cx="95.5" cy="165.5" r="1.5" fill="#D2D6DB"/>
<circle cx="104.5" cy="165.5" r="1.5" fill="#D2D6DB"/>
<circle cx="113.5" cy="165.5" r="1.5" fill="#D2D6DB"/>
<circle cx="122.5" cy="165.5" r="1.5" fill="#D2D6DB"/>
<circle cx="131.5" cy="165.5" r="1.5" fill="#D2D6DB"/>
<circle cx="140.5" cy="165.5" r="1.5" fill="#D2D6DB"/>
<circle cx="149.5" cy="165.5" r="1.5" fill="#D2D6DB"/>
<circle cx="158.5" cy="165.5" r="1.5" fill="#D2D6DB"/>
<circle cx="14.5" cy="174.5" r="1.5" fill="#D2D6DB"/>
<circle cx="23.5" cy="174.5" r="1.5" fill="#D2D6DB"/>
<circle cx="32.5" cy="174.5" r="1.5" fill="#D2D6DB"/>
<circle cx="41.5" cy="174.5" r="1.5" fill="#D2D6DB"/>
<circle cx="50.5" cy="174.5" r="1.5" fill="#D2D6DB"/>
<circle cx="59.5" cy="174.5" r="1.5" fill="#D2D6DB"/>
<circle cx="68.5" cy="174.5" r="1.5" fill="#D2D6DB"/>
<circle cx="77.5" cy="174.5" r="1.5" fill="#D2D6DB"/>
<circle cx="86.5" cy="174.5" r="1.5" fill="#D2D6DB"/>
<circle cx="95.5" cy="174.5" r="1.5" fill="#D2D6DB"/>
<circle cx="104.5" cy="174.5" r="1.5" fill="#D2D6DB"/>
<circle cx="113.5" cy="174.5" r="1.5" fill="#D2D6DB"/>
<circle cx="122.5" cy="174.5" r="1.5" fill="#D2D6DB"/>
<circle cx="131.5" cy="174.5" r="1.5" fill="#D2D6DB"/>
<circle cx="140.5" cy="174.5" r="1.5" fill="#D2D6DB"/>
<circle cx="149.5" cy="174.5" r="1.5" fill="#D2D6DB"/>
<circle cx="158.5" cy="174.5" r="1.5" fill="#D2D6DB"/>
<circle cx="14.5" cy="183.5" r="1.5" fill="#D2D6DB"/>
<circle cx="23.5" cy="183.5" r="1.5" fill="#D2D6DB"/>
<circle cx="32.5" cy="183.5" r="1.5" fill="#D2D6DB"/>
<circle cx="41.5" cy="183.5" r="1.5" fill="#D2D6DB"/>
<circle cx="50.5" cy="183.5" r="1.5" fill="#D2D6DB"/>
<circle cx="59.5" cy="183.5" r="1.5" fill="#D2D6DB"/>
<circle cx="68.5" cy="183.5" r="1.5" fill="#D2D6DB"/>
<circle cx="77.5" cy="183.5" r="1.5" fill="#D2D6DB"/>
<circle cx="86.5" cy="183.5" r="1.5" fill="#D2D6DB"/>
<circle cx="95.5" cy="183.5" r="1.5" fill="#D2D6DB"/>
<circle cx="104.5" cy="183.5" r="1.5" fill="#D2D6DB"/>
<circle cx="113.5" cy="183.5" r="1.5" fill="#D2D6DB"/>
<circle cx="122.5" cy="183.5" r="1.5" fill="#D2D6DB"/>
<circle cx="131.5" cy="183.5" r="1.5" fill="#D2D6DB"/>
<circle cx="140.5" cy="183.5" r="1.5" fill="#D2D6DB"/>
<circle cx="149.5" cy="183.5" r="1.5" fill="#D2D6DB"/>
<circle cx="158.5" cy="183.5" r="1.5" fill="#D2D6DB"/>
<circle cx="14.5" cy="192.5" r="1.5" fill="#D2D6DB"/>
<circle cx="23.5" cy="192.5" r="1.5" fill="#D2D6DB"/>
<circle cx="32.5" cy="192.5" r="1.5" fill="#D2D6DB"/>
<circle cx="41.5" cy="192.5" r="1.5" fill="#D2D6DB"/>
<circle cx="50.5" cy="192.5" r="1.5" fill="#D2D6DB"/>
<circle cx="59.5" cy="192.5" r="1.5" fill="#D2D6DB"/>
<circle cx="68.5" cy="192.5" r="1.5" fill="#D2D6DB"/>
<circle cx="77.5" cy="192.5" r="1.5" fill="#D2D6DB"/>
<circle cx="86.5" cy="192.5" r="1.5" fill="#D2D6DB"/>
<circle cx="95.5" cy="192.5" r="1.5" fill="#D2D6DB"/>
<circle cx="104.5" cy="192.5" r="1.5" fill="#D2D6DB"/>
<circle cx="113.5" cy="192.5" r="1.5" fill="#D2D6DB"/>
<circle cx="122.5" cy="192.5" r="1.5" fill="#D2D6DB"/>
<circle cx="131.5" cy="192.5" r="1.5" fill="#D2D6DB"/>
<circle cx="140.5" cy="192.5" r="1.5" fill="#D2D6DB"/>
<circle cx="149.5" cy="192.5" r="1.5" fill="#D2D6DB"/>
<circle cx="158.5" cy="192.5" r="1.5" fill="#D2D6DB"/>
<circle cx="14.5" cy="201.5" r="1.5" fill="#D2D6DB"/>
<circle cx="23.5" cy="201.5" r="1.5" fill="#D2D6DB"/>
<circle cx="32.5" cy="201.5" r="1.5" fill="#D2D6DB"/>
<circle cx="41.5" cy="201.5" r="1.5" fill="#D2D6DB"/>
<circle cx="50.5" cy="201.5" r="1.5" fill="#D2D6DB"/>
<circle cx="59.5" cy="201.5" r="1.5" fill="#D2D6DB"/>
<circle cx="68.5" cy="201.5" r="1.5" fill="#D2D6DB"/>
<circle cx="77.5" cy="201.5" r="1.5" fill="#D2D6DB"/>
<circle cx="86.5" cy="201.5" r="1.5" fill="#D2D6DB"/>
<circle cx="95.5" cy="201.5" r="1.5" fill="#D2D6DB"/>
<circle cx="104.5" cy="201.5" r="1.5" fill="#D2D6DB"/>
<circle cx="113.5" cy="201.5" r="1.5" fill="#D2D6DB"/>
<circle cx="122.5" cy="201.5" r="1.5" fill="#D2D6DB"/>
<circle cx="131.5" cy="201.5" r="1.5" fill="#D2D6DB"/>
<circle cx="140.5" cy="201.5" r="1.5" fill="#D2D6DB"/>
<circle cx="149.5" cy="201.5" r="1.5" fill="#D2D6DB"/>
<circle cx="158.5" cy="201.5" r="1.5" fill="#D2D6DB"/>
<circle cx="14.5" cy="210.5" r="1.5" fill="#D2D6DB"/>
<circle cx="23.5" cy="210.5" r="1.5" fill="#D2D6DB"/>
<circle cx="32.5" cy="210.5" r="1.5" fill="#D2D6DB"/>
<circle cx="41.5" cy="210.5" r="1.5" fill="#D2D6DB"/>
<circle cx="50.5" cy="210.5" r="1.5" fill="#D2D6DB"/>
<circle cx="59.5" cy="210.5" r="1.5" fill="#D2D6DB"/>
<circle cx="68.5" cy="210.5" r="1.5" fill="#D2D6DB"/>
<circle cx="77.5" cy="210.5" r="1.5" fill="#D2D6DB"/>
<circle cx="86.5" cy="210.5" r="1.5" fill="#D2D6DB"/>
<circle cx="95.5" cy="210.5" r="1.5" fill="#D2D6DB"/>
<circle cx="104.5" cy="210.5" r="1.5" fill="#D2D6DB"/>
<circle cx="113.5" cy="210.5" r="1.5" fill="#D2D6DB"/>
<circle cx="122.5" cy="210.5" r="1.5" fill="#D2D6DB"/>
<circle cx="131.5" cy="210.5" r="1.5" fill="#D2D6DB"/>
<circle cx="140.5" cy="210.5" r="1.5" fill="#D2D6DB"/>
<circle cx="149.5" cy="210.5" r="1.5" fill="#D2D6DB"/>
<circle cx="158.5" cy="210.5" r="1.5" fill="#D2D6DB"/>
</g>
<rect x="1.65125" y="1" width="168.349" height="221" rx="19" stroke="#EFEFEF" stroke-width="2"/>
<defs>
<clipPath id="clip0_6_1820">
<rect width="153" height="205" fill="white" transform="translate(13 11)"/>
</clipPath>
</defs>
</svg>
